<svg width="32" height="31" viewBox="0 0 32 31" fill="none" xmlns="http://www.w3.org/2000/svg">
<path fill-rule="evenodd" clip-rule="evenodd" d="M15.4824 2.5835C8.40464 2.5835 2.66699 8.01908 2.66699 14.7242C2.66699 21.4293 8.40464 26.8649 15.4824 26.8649C18.5095 26.8649 21.2915 25.8706 23.4843 24.208L27.6497 28.1438L27.7605 28.2342C28.1473 28.5053 28.6956 28.4745 29.0455 28.1421C29.4304 27.7765 29.4296 27.1845 29.0437 26.8198L24.9272 22.9302C27.0202 20.7694 28.2978 17.8881 28.2978 14.7242C28.2978 8.01908 22.5601 2.5835 15.4824 2.5835ZM15.4824 4.45349C21.47 4.45349 26.3239 9.05185 26.3239 14.7242C26.3239 20.3966 21.47 24.9949 15.4824 24.9949C9.4948 24.9949 4.64091 20.3966 4.64091 14.7242C4.64091 9.05185 9.4948 4.45349 15.4824 4.45349Z" fill="#929292"/>
</svg>
